<svg xmlns="http://www.w3.org/2000/svg" width="900" height="540" viewBox="0 0 900 540">
<rect width="100%" height="100%" fill="white"/>
<text x="450.0" y="30" text-anchor="middle" font-family="sans-serif" font-size="20">Maximum-value pixel fraction</text>
<line x1="75" y1="465" x2="865" y2="465" stroke="black"/>
<line x1="75" y1="55" x2="75" y2="465" stroke="black"/>
<rect x="75.00" y="55.00" width="25.33" height="410.00" fill="#4472c4"/>
<rect x="101.33" y="465.00" width="25.33" height="0.00" fill="#4472c4"/>
<rect x="127.67" y="465.00" width="25.33" height="0.00" fill="#4472c4"/>
<rect x="154.00" y="465.00" width="25.33" height="0.00" fill="#4472c4"/>
<rect x="180.33" y="465.00" width="25.33" height="0.00" fill="#4472c4"/>
<rect x="206.67" y="465.00" width="25.33" height="0.00" fill="#4472c4"/>
<rect x="233.00" y="465.00" width="25.33" height="0.00" fill="#4472c4"/>
<rect x="259.33" y="465.00" width="25.33" height="0.00" fill="#4472c4"/>
<rect x="285.67" y="465.00" width="25.33" height="0.00" fill="#4472c4"/>
<rect x="312.00" y="465.00" width="25.33" height="0.00" fill="#4472c4"/>
<rect x="338.33" y="465.00" width="25.33" height="0.00" fill="#4472c4"/>
<rect x="364.67" y="465.00" width="25.33" height="0.00" fill="#4472c4"/>
<rect x="391.00" y="465.00" width="25.33" height="0.00" fill="#4472c4"/>
<rect x="417.33" y="465.00" width="25.33" height="0.00" fill="#4472c4"/>
<rect x="443.67" y="465.00" width="25.33" height="0.00" fill="#4472c4"/>
<rect x="470.00" y="465.00" width="25.33" height="0.00" fill="#4472c4"/>
<rect x="496.33" y="465.00" width="25.33" height="0.00" fill="#4472c4"/>
<rect x="522.67" y="465.00" width="25.33" height="0.00" fill="#4472c4"/>
<rect x="549.00" y="465.00" width="25.33" height="0.00" fill="#4472c4"/>
<rect x="575.33" y="465.00" width="25.33" height="0.00" fill="#4472c4"/>
<rect x="601.67" y="465.00" width="25.33" height="0.00" fill="#4472c4"/>
<rect x="628.00" y="465.00" width="25.33" height="0.00" fill="#4472c4"/>
<rect x="654.33" y="465.00" width="25.33" height="0.00" fill="#4472c4"/>
<rect x="680.67" y="463.85" width="25.33" height="1.15" fill="#4472c4"/>
<rect x="707.00" y="462.69" width="25.33" height="2.31" fill="#4472c4"/>
<rect x="733.33" y="460.38" width="25.33" height="4.62" fill="#4472c4"/>
<rect x="759.67" y="446.52" width="25.33" height="18.48" fill="#4472c4"/>
<rect x="786.00" y="396.86" width="25.33" height="68.14" fill="#4472c4"/>
<rect x="812.33" y="411.87" width="25.33" height="53.13" fill="#4472c4"/>
<rect x="838.67" y="445.37" width="25.33" height="19.63" fill="#4472c4"/>
<text x="75" y="490" font-family="sans-serif" font-size="12">0.0001408</text>
<text x="865" y="490" text-anchor="end" font-family="sans-serif" font-size="12">0.7457</text>
<text x="470.0" y="520" text-anchor="middle" font-family="sans-serif" font-size="14">fraction</text>
<text x="18" y="260.0" transform="rotate(-90 18 260.0)" text-anchor="middle" font-family="sans-serif" font-size="14">count</text>
</svg>