<svg xmlns="http://www.w3.org/2000/svg" width="900" height="540" viewBox="0 0 900 540">
<rect width="100%" height="100%" fill="white"/>
<text x="450.0" y="30" text-anchor="middle" font-family="sans-serif" font-size="20">10s 5-fold: absolute_median_difference</text>
<line x1="166.00" y1="445.00" x2="166.00" y2="67.58" stroke="black"/>
<rect x="128.00" y="294.03" width="76.00" height="100.65" fill="#c6d9f1" stroke="#4472c4"/>
<line x1="128.00" y1="356.94" x2="204.00" y2="356.94" stroke="#c00000" stroke-width="2"/>
<text x="166.00" y="465" text-anchor="middle" font-family="sans-serif" font-size="10">F1</text>
<line x1="318.00" y1="445.00" x2="318.00" y2="67.58" stroke="black"/>
<rect x="280.00" y="300.32" width="76.00" height="94.35" fill="#c6d9f1" stroke="#4472c4"/>
<line x1="280.00" y1="344.35" x2="356.00" y2="344.35" stroke="#c00000" stroke-width="2"/>
<text x="318.00" y="465" text-anchor="middle" font-family="sans-serif" font-size="10">F2</text>
<line x1="470.00" y1="445.00" x2="470.00" y2="92.74" stroke="black"/>
<rect x="432.00" y="294.03" width="76.00" height="100.65" fill="#c6d9f1" stroke="#4472c4"/>
<line x1="432.00" y1="344.35" x2="508.00" y2="344.35" stroke="#c00000" stroke-width="2"/>
<text x="470.00" y="465" text-anchor="middle" font-family="sans-serif" font-size="10">F3</text>
<line x1="622.00" y1="445.00" x2="622.00" y2="55.00" stroke="black"/>
<rect x="584.00" y="281.45" width="76.00" height="113.23" fill="#c6d9f1" stroke="#4472c4"/>
<line x1="584.00" y1="344.35" x2="660.00" y2="344.35" stroke="#c00000" stroke-width="2"/>
<text x="622.00" y="465" text-anchor="middle" font-family="sans-serif" font-size="10">F4</text>
<line x1="774.00" y1="445.00" x2="774.00" y2="80.16" stroke="black"/>
<rect x="736.00" y="319.19" width="76.00" height="75.48" fill="#c6d9f1" stroke="#4472c4"/>
<line x1="736.00" y1="356.94" x2="812.00" y2="356.94" stroke="#c00000" stroke-width="2"/>
<text x="774.00" y="465" text-anchor="middle" font-family="sans-serif" font-size="10">F5</text>
<line x1="90" y1="445" x2="850" y2="445" stroke="black"/>
<text x="18" y="250.0" transform="rotate(-90 18 250.0)" text-anchor="middle" font-family="sans-serif" font-size="14">absolute_median_difference</text>
</svg>