<svg xmlns="http://www.w3.org/2000/svg" width="900" height="540" viewBox="0 0 900 540">
<rect width="100%" height="100%" fill="white"/>
<text x="450.0" y="30" text-anchor="middle" font-family="sans-serif" font-size="20">6s 4-fold: cnr_like_robust</text>
<line x1="185.00" y1="445.00" x2="185.00" y2="250.00" stroke="black"/>
<rect x="137.50" y="364.52" width="95.00" height="45.81" fill="#c6d9f1" stroke="#4472c4"/>
<line x1="137.50" y1="389.29" x2="232.50" y2="389.29" stroke="#c00000" stroke-width="2"/>
<text x="185.00" y="465" text-anchor="middle" font-family="sans-serif" font-size="10">F1</text>
<line x1="375.00" y1="445.00" x2="375.00" y2="193.67" stroke="black"/>
<rect x="327.50" y="369.17" width="95.00" height="43.33" fill="#c6d9f1" stroke="#4472c4"/>
<line x1="327.50" y1="393.00" x2="422.50" y2="393.00" stroke="#c00000" stroke-width="2"/>
<text x="375.00" y="465" text-anchor="middle" font-family="sans-serif" font-size="10">F2</text>
<line x1="565.00" y1="445.00" x2="565.00" y2="55.00" stroke="black"/>
<rect x="517.50" y="366.41" width="95.00" height="46.09" fill="#c6d9f1" stroke="#4472c4"/>
<line x1="517.50" y1="391.44" x2="612.50" y2="391.44" stroke="#c00000" stroke-width="2"/>
<text x="565.00" y="465" text-anchor="middle" font-family="sans-serif" font-size="10">F3</text>
<line x1="755.00" y1="445.00" x2="755.00" y2="152.50" stroke="black"/>
<rect x="707.50" y="364.40" width="95.00" height="47.71" fill="#c6d9f1" stroke="#4472c4"/>
<line x1="707.50" y1="392.52" x2="802.50" y2="392.52" stroke="#c00000" stroke-width="2"/>
<text x="755.00" y="465" text-anchor="middle" font-family="sans-serif" font-size="10">F4</text>
<line x1="90" y1="445" x2="850" y2="445" stroke="black"/>
<text x="18" y="250.0" transform="rotate(-90 18 250.0)" text-anchor="middle" font-family="sans-serif" font-size="14">cnr_like_robust</text>
</svg>