<svg xmlns="http://www.w3.org/2000/svg" width="900" height="540" viewBox="0 0 900 540">
<rect width="100%" height="100%" fill="white"/>
<text x="450.0" y="30" text-anchor="middle" font-family="sans-serif" font-size="20">6s 4-fold: product_edge_distance_px</text>
<line x1="185.00" y1="430.51" x2="185.00" y2="62.11" stroke="black"/>
<rect x="137.50" y="271.03" width="95.00" height="112.82" fill="#c6d9f1" stroke="#4472c4"/>
<line x1="137.50" y1="328.01" x2="232.50" y2="328.01" stroke="#c00000" stroke-width="2"/>
<text x="185.00" y="465" text-anchor="middle" font-family="sans-serif" font-size="10">F1</text>
<line x1="375.00" y1="426.19" x2="375.00" y2="64.27" stroke="black"/>
<rect x="327.50" y="278.38" width="95.00" height="97.36" fill="#c6d9f1" stroke="#4472c4"/>
<line x1="327.50" y1="342.46" x2="422.50" y2="342.46" stroke="#c00000" stroke-width="2"/>
<text x="375.00" y="465" text-anchor="middle" font-family="sans-serif" font-size="10">F2</text>
<line x1="565.00" y1="440.88" x2="565.00" y2="55.00" stroke="black"/>
<rect x="517.50" y="273.44" width="95.00" height="108.95" fill="#c6d9f1" stroke="#4472c4"/>
<line x1="517.50" y1="339.86" x2="612.50" y2="339.86" stroke="#c00000" stroke-width="2"/>
<text x="565.00" y="465" text-anchor="middle" font-family="sans-serif" font-size="10">F3</text>
<line x1="755.00" y1="445.00" x2="755.00" y2="72.75" stroke="black"/>
<rect x="707.50" y="267.86" width="95.00" height="109.21" fill="#c6d9f1" stroke="#4472c4"/>
<line x1="707.50" y1="346.94" x2="802.50" y2="346.94" stroke="#c00000" stroke-width="2"/>
<text x="755.00" y="465" text-anchor="middle" font-family="sans-serif" font-size="10">F4</text>
<line x1="90" y1="445" x2="850" y2="445" stroke="black"/>
<text x="18" y="250.0" transform="rotate(-90 18 250.0)" text-anchor="middle" font-family="sans-serif" font-size="14">product_edge_distance_px</text>
</svg>